<svg width="101" height="46" viewBox="0 0 101 46" fill="none" xmlns="http://www.w3.org/2000/svg">
<g clip-path="url(#clip0)">
<rect width="101" height="46" fill="white"/>
<path d="M22.0551 0H4.74081H0.103061L7.31733 14.5316L2.16428 24.8377L0 29.0632H22.2612C26.1775 29.0632 29.8877 27.5173 32.6704 24.7346C35.453 21.952 36.8959 18.2418 36.7928 14.3255C36.6897 6.38978 30.0938 0 22.0551 0ZM29.5785 21.6428C27.6204 23.704 24.8377 24.8377 22.0551 24.8377H7.00815L11.749 15.253L12.0581 14.6347L11.5428 13.6041L9.58468 9.58468L7.9357 6.49284L6.90509 4.43162H22.1581C27.7234 4.43162 32.2581 8.96631 32.3612 14.4285C32.5673 17.0051 31.5367 19.5816 29.5785 21.6428Z" fill="#FCC11A"/>
<path d="M65.959 14.5316C67.6079 12.9857 68.7416 10.8214 68.7416 8.34794C68.7416 3.7102 65.0314 0 60.3937 0H46.0682H41.7396V4.32856V12.3673V16.6959V24.7346V29.0632H60.2906C64.9284 29.0632 68.6386 25.353 68.6386 20.7153C68.7416 18.2418 67.711 16.0775 65.959 14.5316ZM60.3937 24.7346H46.0682V16.6959H60.3937C60.3937 16.6959 60.3937 16.6959 60.4967 16.6959C62.7641 16.6959 64.5161 18.4479 64.5161 20.7153C64.5161 22.9826 62.661 24.7346 60.3937 24.7346ZM60.3937 12.3673H46.0682V4.32856H60.3937C60.3937 4.32856 60.3937 4.32856 60.4967 4.32856C62.7641 4.32856 64.5161 6.0806 64.5161 8.34794C64.5161 10.6153 62.661 12.3673 60.3937 12.3673Z" fill="#FCC11A"/>
<path d="M100.897 8.34794C100.897 3.7102 97.1871 0 92.5494 0H78.0178H73.6892V4.32856V12.3673V16.6959V29.0632H78.0178V16.6959H87.3963L95.7443 29.0632H99.3514H101L92.6524 16.6959C97.1871 16.6959 100.897 12.9857 100.897 8.34794ZM78.0178 12.3673V4.32856H92.5494C92.5494 4.32856 92.5494 4.32856 92.6524 4.32856C94.9198 4.32856 96.6718 6.0806 96.6718 8.34794C96.6718 10.6153 94.9198 12.3673 92.6524 12.3673C92.6524 12.3673 92.6524 12.3673 92.5494 12.3673H78.0178V12.3673Z" fill="#FCC11A"/>
<path d="M9.89432 44.007L8.76065 42.8734C8.03922 43.6979 7.21474 44.007 6.08106 44.007C5.35964 44.007 4.84433 43.904 4.22597 43.5948C3.71066 43.2856 3.29842 42.8734 2.98923 42.3581C2.68005 41.8428 2.57699 41.2244 2.57699 40.606C2.57699 39.9877 2.68005 39.3693 2.98923 38.854C3.29842 38.3387 3.71066 37.9264 4.22597 37.6173C4.74127 37.3081 5.35964 37.205 6.08106 37.205C7.11167 37.205 8.03922 37.6173 8.76065 38.3387L9.89432 37.205C9.48208 36.6897 8.86371 36.2775 8.24535 35.9683C7.62698 35.6591 6.80249 35.556 6.08106 35.556C5.05045 35.556 4.22597 35.7622 3.40148 36.1744C2.57699 36.5866 1.95862 37.205 1.54638 38.0295C1.13413 38.7509 0.824951 39.6785 0.824951 40.606C0.824951 41.5336 1.03107 42.4611 1.54638 43.1825C1.95862 43.904 2.68005 44.5223 3.40148 45.0376C4.22597 45.4499 5.05045 45.656 6.08106 45.656C6.90555 45.656 7.62698 45.553 8.24535 45.2438C8.86371 44.9346 9.37902 44.6254 9.89432 44.007Z" fill="#FCC11A"/>
<path d="M21.7442 45.0376C22.5687 45.4499 23.4962 45.656 24.4238 45.656C25.4544 45.656 26.3819 45.4499 27.1034 45.0376C27.9279 44.6254 28.5462 44.007 28.9585 43.1825C29.3707 42.4611 29.6799 41.5336 29.6799 40.606C29.6799 39.6785 29.4738 38.7509 28.9585 38.0295C28.5462 37.3081 27.8248 36.6897 27.1034 36.1744C26.2789 35.7622 25.3513 35.556 24.4238 35.556C23.3932 35.556 22.4656 35.7622 21.7442 36.1744C20.9197 36.5866 20.3013 37.205 19.8891 38.0295C19.4768 38.854 19.1677 39.6785 19.1677 40.606C19.1677 41.5336 19.3738 42.4611 19.8891 43.1825C20.3013 44.007 20.9197 44.6254 21.7442 45.0376ZM21.435 38.854C21.7442 38.3387 22.1564 37.9264 22.6717 37.6173C23.187 37.3081 23.8054 37.205 24.4238 37.205C25.0421 37.205 25.6605 37.3081 26.1758 37.6173C26.6911 37.9264 27.1034 38.3387 27.4125 38.854C27.7217 39.3693 27.8248 39.9877 27.8248 40.606C27.8248 41.2244 27.7217 41.8428 27.4125 42.3581C27.1034 42.8734 26.6911 43.2856 26.1758 43.5948C25.6605 43.904 25.0421 44.007 24.4238 44.007C23.8054 44.007 23.187 43.904 22.6717 43.5948C22.1564 43.2856 21.7442 42.8734 21.435 42.3581C21.1258 41.8428 21.0228 41.2244 21.0228 40.606C21.0228 39.9877 21.1258 39.3693 21.435 38.854Z" fill="#FCC11A"/>
<path d="M40.1944 45.5527H41.9464V41.7394H46.6872V40.1935H41.9464V37.2047H47.3056V35.6588H40.1944V45.5527Z" fill="#FCC11A"/>
<path d="M64.7232 37.2047V35.6588H57.5089V45.5527H59.364V41.7394H64.1048V40.1935H59.364V37.2047H64.7232Z" fill="#FCC11A"/>
<path d="M82.1379 37.2047V35.6588H74.9236V45.5527H82.344V44.0068H76.7787V41.3272H81.5196V39.7813H76.7787V37.2047H82.1379Z" fill="#FCC11A"/>
<path d="M94.6089 41.3272H99.3497V39.7813H94.6089V37.2047H99.9681V35.6588H92.8569V45.5527H100.174V44.0068H94.6089V41.3272Z" fill="#FCC11A"/>
<path d="M27.5187 15.356C26.9003 14.9438 26.1789 15.0468 25.5605 15.1499V14.9438C25.5605 14.2223 25.0452 13.707 24.3238 13.707H15.0483C14.3269 13.707 13.8116 14.2223 13.8116 14.9438V15.5621C13.8116 18.0356 15.1514 20.3029 17.3157 21.4366C17.4187 21.4366 17.5218 21.5397 17.6248 21.5397C17.7279 21.5397 17.7279 21.5397 17.831 21.5397H21.7473C21.8503 21.5397 22.0565 21.5397 22.1595 21.5397C22.7779 21.2305 23.3963 20.8182 23.9116 20.3029H24.0146C24.4269 20.1999 28.4463 19.3754 28.4463 17.108C28.2401 16.1805 28.034 15.6652 27.5187 15.356ZM17.934 20.5091C16.0789 19.4785 14.9453 17.6234 14.9453 15.6652V15.0468C14.9453 14.9438 14.9453 14.9438 15.0483 14.9438H24.3238C24.4269 14.9438 24.4269 14.9438 24.4269 15.0468V15.6652C24.4269 17.7264 23.2932 19.5815 21.4381 20.5091C21.4381 20.5091 21.4381 20.5091 21.335 20.6121H17.934V20.5091ZM25.5605 16.3866C25.9728 16.2836 26.5912 16.0774 26.9003 16.2836C27.1065 16.3866 27.1065 16.5927 27.1065 16.9019C27.1065 17.6234 25.8697 18.3448 24.8391 18.654C25.1483 18.0356 25.4575 17.2111 25.5605 16.3866Z" fill="#FCC11A"/>
<path d="M21.5402 12.4703C21.6432 12.5734 21.8493 12.6765 21.9524 12.6765C22.0555 12.6765 22.1585 12.6765 22.2616 12.5734C22.3646 12.4703 22.4677 12.3673 22.4677 12.1612C22.4677 12.0581 22.4677 11.852 22.3646 11.7489C22.0555 11.4397 22.0555 10.8214 22.3646 10.5122C22.983 9.79076 22.983 8.55403 22.3646 7.8326C22.1585 7.62648 21.8493 7.52342 21.5402 7.72954C21.334 7.93566 21.231 8.24485 21.4371 8.55403C21.7463 8.86321 21.7463 9.48158 21.4371 9.79076C20.9218 10.5122 20.9218 11.7489 21.5402 12.4703Z" fill="#FCC11A"/>
<path d="M19.2716 12.4703C19.3747 12.5734 19.5808 12.6765 19.6838 12.6765C19.7869 12.6765 19.89 12.6765 19.993 12.5734C20.1992 12.3673 20.3022 12.0581 20.0961 11.7489C19.7869 11.4397 19.7869 10.8214 20.0961 10.5122C20.7145 9.79075 20.7145 8.55401 20.0961 7.83259C19.993 7.72953 19.89 7.62646 19.6838 7.62646C19.5808 7.62646 19.3747 7.62647 19.2716 7.72953C19.1685 7.83259 19.0655 7.93565 19.0655 8.14177C19.0655 8.24483 19.0655 8.45095 19.1685 8.55401C19.4777 8.8632 19.4777 9.48156 19.1685 9.79075C18.6532 10.5122 18.6532 11.7489 19.2716 12.4703Z" fill="#FCC11A"/>
<path d="M16.9029 12.4703C17.006 12.5734 17.2121 12.6765 17.3151 12.6765C17.4182 12.6765 17.5213 12.6765 17.6243 12.5734C17.7274 12.4703 17.8304 12.3673 17.8304 12.1612C17.8304 12.0581 17.8304 11.852 17.7274 11.7489C17.4182 11.4397 17.4182 10.8214 17.7274 10.5122C18.3457 9.79075 18.3457 8.55401 17.7274 7.83259C17.6243 7.72953 17.5213 7.62646 17.3151 7.62646C17.2121 7.62646 17.006 7.62647 16.9029 7.72953C16.6968 7.93565 16.5937 8.24483 16.7998 8.55401C17.109 8.8632 17.109 9.48156 16.7998 9.79075C16.2845 10.5122 16.2845 11.7489 16.9029 12.4703Z" fill="#FCC11A"/>
</g>
<defs>
<clipPath id="clip0">
<rect width="101" height="46" fill="white"/>
</clipPath>
</defs>
</svg>
